<svg xmlns="http://www.w3.org/2000/svg" xmlns:xlink="http://www.w3.org/1999/xlink" width="212" height="220" viewBox="0 0 212 220">
    <defs>
        <path id="a" d="M0 .742h190.757V191.5H0z"/>
        <path id="d" d="M153.983 144.473H36.773a4.982 4.982 0 0 1-4.98-4.982v-86.74a4.98 4.98 0 0 1 4.98-4.981h117.21a4.98 4.98 0 0 1 4.981 4.98v86.741c0 2.75-2.23 4.982-4.981 4.982"/>
        <filter id="c" width="121.2%" height="127.9%" x="-10.6%" y="-10.9%" filterUnits="objectBoundingBox">
            <feOffset dy="3" in="SourceAlpha" result="shadowOffsetOuter1"/>
            <feGaussianBlur in="shadowOffsetOuter1" result="shadowBlurOuter1" stdDeviation="4"/>
            <feColorMatrix in="shadowBlurOuter1" values="0 0 0 0 0 0 0 0 0 0 0 0 0 0 0 0 0 0 0.12 0"/>
        </filter>
        <path id="e" d="M0 219.17h190.757V.742H0z"/>
        <path id="g" d="M.033.453l46.365 64.75L92.762.453z"/>
        <linearGradient id="h" x1="44.219%" x2="44.219%" y1="14.75%" y2="68.86%">
            <stop offset="0%" stop-color="#EBEC29" stop-opacity=".061"/>
            <stop offset="100%" stop-color="#ECF535"/>
        </linearGradient>
        <path id="j" d="M.22.488h45.864v58.455H.22z"/>
        <path id="l" d="M.505.574h20.737v21.3H.505z"/>
    </defs>
    <g fill="none" fill-rule="evenodd">
        <g transform="translate(0 .088)">
            <mask id="b" fill="#fff">
                <use xlink:href="#a"/>
            </mask>
            <path fill="#92F0E6" d="M190.757 96.12c0 52.677-42.702 95.38-95.379 95.38C42.702 191.5 0 148.796 0 96.12 0 43.445 42.702.742 95.378.742c52.677 0 95.379 42.703 95.379 95.378" mask="url(#b)"/>
            <path fill="#6BE3D7" d="M184.615 96.12c0 49.285-39.953 89.237-89.236 89.237-49.284 0-89.237-39.952-89.237-89.237 0-49.283 39.953-89.236 89.237-89.236 49.283 0 89.236 39.953 89.236 89.236" opacity=".5"/>
            <path fill="#29C7B7" d="M36.774 145.956a4.982 4.982 0 0 1-4.981-4.981v-86.74a4.98 4.98 0 0 1 4.981-4.982h117.21a4.98 4.98 0 0 1 4.98 4.981v86.741c0 2.75-2.23 4.981-4.98 4.981" opacity=".1"/>
            <use fill="#000" filter="url(#c)" xlink:href="#d"/>
            <use fill="#FFF" xlink:href="#d"/>
            <mask id="f" fill="#fff">
                <use xlink:href="#e"/>
            </mask>
            <path fill="#000" d="M94.144 110.933h2.47V76.37h-2.47zM89.206 110.933h2.47V76.37h-2.47zM84.27 110.933h2.468V76.37H84.27zM79.332 110.933h2.469V76.37h-2.469zM74.394 110.933h2.469V76.37h-2.469zM69.456 110.933h2.47V76.37h-2.47zM64.519 110.933h2.469V76.37h-2.47zM123.77 110.933h2.468V76.37h-2.468zM113.894 110.933h2.47V76.37h-2.47zM118.832 110.933h2.47V76.37h-2.47zM108.956 110.933h2.47V76.37h-2.47zM104.02 110.933h2.468V76.37h-2.469zM99.082 110.933h2.47V76.37h-2.47zM59.581 68.964c-.681 0-1.234.553-1.234 1.235v6.171h2.469v-4.937h4.938v-2.469H59.58zM131.176 68.964h-6.173v2.47h4.939v4.936h2.468V70.2c0-.682-.553-1.235-1.234-1.235M60.816 120.808v-4.937h-2.47v6.172c0 .682.553 1.234 1.236 1.234h6.171v-2.469h-4.937zM129.942 115.87v4.938h-4.938v2.469h6.171c.683 0 1.236-.552 1.236-1.234v-6.172h-2.47zM74.394 115.871h2.469v-2.469h-2.469zM64.519 115.871h2.469v-2.469h-2.47zM84.27 115.871h2.468v-2.469H84.27zM94.144 115.871h2.47v-2.469h-2.47zM104.02 115.871h2.468v-2.469h-2.469zM113.894 115.871h2.47v-2.469h-2.47zM123.77 115.871h2.468v-2.469h-2.468zM69.456 71.434h51.845v-2.47H69.456zM69.456 123.277h51.845v-2.469H69.456z" mask="url(#f)"/>
        </g>
        <g transform="translate(48.981 112.994)">
            <mask id="i" fill="#fff">
                <use xlink:href="#g"/>
            </mask>
            <path fill="url(#h)" d="M.033.453l46.365 64.75L92.762.453z" mask="url(#i)"/>
        </g>
        <g transform="translate(72.226 160.314)">
            <mask id="k" fill="#fff">
                <use xlink:href="#j"/>
            </mask>
            <path fill="#0B68E3" d="M37.783 58.944H8.522A8.302 8.302 0 0 1 .22 50.642V2.149c0-.918.743-1.66 1.66-1.66h42.544c.917 0 1.66.742 1.66 1.66v48.493a8.303 8.303 0 0 1-8.301 8.302" mask="url(#k)"/>
        </g>
        <path fill="#F0FFFF" d="M108.038 176.99h-25.32a.83.83 0 0 1-.83-.83v-5.534c0-.459.373-.83.83-.83h25.32a.83.83 0 0 1 .83.83v5.534a.83.83 0 0 1-.83.83"/>
        <path fill="#374750" d="M113.365 160.803H77.392v-6.365a.83.83 0 0 1 .83-.83h34.312c.46 0 .83.372.83.83v6.365z"/>
        <path fill="#C3F7F2" d="M97.627 190.48a2.697 2.697 0 1 1-5.395 0 2.697 2.697 0 0 1 5.395 0M106.62 190.48a2.697 2.697 0 1 1-5.395 0 2.697 2.697 0 0 1 5.395 0M88.634 190.48a2.697 2.697 0 1 1-5.395 0 2.697 2.697 0 0 1 5.395 0"/>
        <g>
            <path fill="#FF9233" d="M211.089 39.544c0 19.63-15.914 35.545-35.545 35.545-19.63 0-35.544-15.914-35.544-35.545C140 19.914 155.914 4 175.544 4c19.631 0 35.545 15.914 35.545 35.544"/>
            <g transform="translate(143.646 54.127)">
                <mask id="m" fill="#fff">
                    <use xlink:href="#l"/>
                </mask>
                <path fill="#FF9233" d="M2.101.574L3.55 6.56c.523 2.164.409 4.44-.33 6.538L.56 20.66c-.264.751.478 1.461 1.183 1.13l7.596-3.568a14.285 14.285 0 0 1 6.076-1.36h5.827L2.102.574z" mask="url(#m)"/>
            </g>
            <path fill="#FFB032" d="M140 39.481c0 4.115.708 8.063 1.996 11.738a35.414 35.414 0 0 0 11.738 1.996c19.596 0 35.481-15.885 35.481-35.48a35.39 35.39 0 0 0-1.997-11.738A35.39 35.39 0 0 0 175.481 4C155.885 4 140 19.886 140 39.481"/>
            <path fill="#FFF" d="M192.02 24.323c.184-.182.428-.272.733-.272s.58.09.824.272l2.563 2.627a.859.859 0 0 1 .366.726c0 .302-.122.574-.366.815l-27.46 27.186c-.184.182-.428.272-.733.272-.306 0-.58-.09-.825-.272L154.95 43.534a.857.857 0 0 1-.367-.724c0-.303.123-.575.367-.816l2.562-2.538c.245-.241.52-.362.824-.362.306 0 .55.12.733.362l8.879 8.79 24.073-23.923z"/>
        </g>
    </g>
</svg>
